<?xml version="1.0" standalone="no"?>
<!DOCTYPE svg PUBLIC "-//W3C//DTD SVG 20010904//EN"
 "http://www.w3.org/TR/2001/REC-SVG-20010904/DTD/svg10.dtd">
<svg version="1.0" xmlns="http://www.w3.org/2000/svg"
 width="90.000000pt" height="90.000000pt" viewBox="0 0 90.000000 90.000000"
 preserveAspectRatio="xMidYMid meet">
<metadata>
Created by potrace 1.14, written by Peter Selinger 2001-2017
</metadata>
<g transform="translate(0.000000,90.000000) scale(0.100000,-0.100000)"
fill="#000000" stroke="none">
<path d="M775 868 c-11 -6 -45 -35 -74 -64 -38 -36 -59 -50 -66 -44 -7 6 -15
7 -18 3 -4 -3 -7 -2 -7 4 0 10 -23 19 -75 30 -24 5 -131 6 -162 2 -13 -2 -23
-7 -23 -12 0 -4 -4 -6 -8 -3 -12 7 -101 -46 -139 -83 -36 -34 -71 -95 -90
-155 -18 -60 -11 -172 16 -233 l23 -53 -66 -70 c-67 -72 -75 -90 -55 -134 10
-21 50 -42 72 -38 4 1 12 3 18 5 6 1 40 31 76 67 l64 65 37 -21 c53 -31 157
-45 217 -31 66 16 83 22 115 40 52 28 120 104 149 167 22 46 26 69 25 145 0
76 -4 98 -25 140 l-25 51 63 64 c66 66 79 103 50 141 -17 22 -67 31 -92 17z
m-242 -143 c20 -4 37 -11 37 -17 0 -5 5 -6 11 -2 38 23 -19 -40 -186 -206
l-189 -189 -14 32 c-37 86 -20 209 38 282 33 42 90 84 120 90 11 2 26 8 35 12
18 10 94 9 148 -2z m191 -183 c60 -179 -77 -372 -265 -374 -47 0 -115 17 -133
32 -7 7 360 389 376 390 3 0 14 -22 22 -48z"/>
</g>
</svg>
